<svg width="264" height="249" viewBox="0 0 264 249" fill="none" xmlns="http://www.w3.org/2000/svg">
<g filter="url(#filter0_f_4_80)">
<path d="M172.69 105.669L172.703 105.938L172.961 106.009C182.217 108.56 188.807 116.533 188.806 125.703C188.806 128.735 188.107 131.659 186.725 134.398L185.744 136.342H147.204H146.834V136.712V158.844V159.214H147.204H161.379L133.138 174.348L104.897 159.214H119.073H119.443V158.844V129.615H146.836V129.626H147.206H180.634H180.91L180.988 129.36C181.338 128.177 181.514 126.953 181.514 125.704C181.514 118.749 175.923 112.872 168.559 111.991L165.207 111.59L165.387 108.482L165.387 108.482C165.415 107.988 165.43 107.528 165.43 107.077C165.43 92.7958 152.92 81.2241 137.603 81.2241C126.954 81.2241 117.091 86.9915 112.484 95.9438L111.423 98.0048L108.952 97.8571L108.952 97.8571C108.315 97.819 107.794 97.801 107.317 97.801C93.6525 97.801 82.4889 108.124 82.4889 120.87C82.4889 123.833 83.0785 126.694 84.246 129.402L84.3423 129.625H84.5857H101.251V136.341H79.7815L78.7647 134.514L78.7647 134.514C76.4282 130.317 75.1938 125.599 75.1938 120.87C75.1938 104.631 89.3001 91.3445 106.801 91.0883L107.004 91.0853L107.11 90.913C113.317 80.881 125.012 74.5073 137.602 74.5073C156.484 74.5073 171.895 88.3848 172.69 105.669Z" fill="#A8F78E" stroke="black" stroke-width="0.739927"/>
<path d="M165.387 108.481L165.387 108.481C165.415 107.988 165.429 107.528 165.429 107.076C165.429 92.7946 152.92 81.2235 137.603 81.2235C126.954 81.2235 117.09 86.9915 112.484 95.9438L111.423 98.0048L108.951 97.8571C108.314 97.819 107.794 97.801 107.316 97.801C93.6519 97.801 82.4883 108.124 82.4883 120.87C82.4883 121.3 82.5041 121.727 82.5307 122.149C80.0326 121.537 77.592 120.846 75.2148 120.082C75.6629 104.205 89.5858 91.3408 106.802 91.0883L107.004 91.0853L107.111 90.913C113.318 80.881 125.012 74.5073 137.603 74.5073C156.485 74.5073 171.895 88.3848 172.691 105.669L172.703 105.937L172.962 106.009C173.289 106.1 173.614 106.198 173.935 106.302C171.478 108.214 168.824 110.012 165.995 111.684L165.206 111.59L165.387 108.481Z" fill="#48FB31" stroke="black" stroke-width="0.739927"/>
</g>
<g filter="url(#filter1_d_4_80)">
<path d="M161.731 106.718C161.082 91.4157 148.518 79.1688 133.167 79.1688C122.928 79.1688 113.408 84.7928 108.351 93.663C94.1109 93.8893 82.5953 105.626 82.5953 120.02C82.5953 124.21 83.6031 128.388 85.5095 132.104L86.4139 133.867H104.183V127.35H90.4592C89.5349 125.023 89.0681 122.566 89.0681 120.02C89.0681 109.079 97.9064 100.178 108.77 100.178C109.148 100.178 109.561 100.193 110.07 100.226L112.255 100.368L113.199 98.3788C116.854 90.6688 124.693 85.6871 133.168 85.6871C145.364 85.6871 155.286 95.6799 155.286 107.963C155.286 108.351 155.275 108.746 155.253 109.172L155.091 112.193L158.07 112.58C163.869 113.332 168.243 118.347 168.243 124.245C168.243 125.307 168.106 126.346 167.832 127.35H140.904V127.341H118.241V153.215H105.634L129.572 167.134L153.509 153.215H140.903V133.868H172.132L173.005 131.991C174.139 129.552 174.714 126.946 174.714 124.245C174.714 116.067 169.302 108.982 161.731 106.718Z" fill="#A8F78E"/>
<path d="M89.1307 121.557C89.0923 121.048 89.0677 120.537 89.0677 120.02C89.0677 109.079 97.906 100.178 108.77 100.178C109.147 100.178 109.56 100.193 110.069 100.226L112.254 100.368L113.198 98.3788C116.854 90.6688 124.693 85.6866 133.168 85.6866C145.364 85.6866 155.286 95.6789 155.286 107.962C155.286 108.35 155.275 108.746 155.252 109.172L155.091 112.193L156.104 112.324C158.594 110.733 160.917 109.011 163.052 107.171C162.62 107.004 162.18 106.852 161.732 106.718C161.083 91.4157 148.519 79.1688 133.168 79.1688C122.928 79.1688 113.409 84.7928 108.351 93.663C94.2625 93.8872 82.8478 105.381 82.6072 119.565C84.7215 120.309 86.8982 120.975 89.1307 121.557Z" fill="#48FB31"/>
</g>
<defs>
<filter id="filter0_f_4_80" x="0.831177" y="0.144653" width="262.338" height="248.615" filterUnits="userSpaceOnUse" color-interpolation-filters="sRGB">
<feFlood flood-opacity="0" result="BackgroundImageFix"/>
<feBlend mode="normal" in="SourceGraphic" in2="BackgroundImageFix" result="shape"/>
<feGaussianBlur stdDeviation="36.9963" result="effect1_foregroundBlur_4_80"/>
</filter>
<filter id="filter1_d_4_80" x="79.6356" y="79.1688" width="98.0381" height="93.8845" filterUnits="userSpaceOnUse" color-interpolation-filters="sRGB">
<feFlood flood-opacity="0" result="BackgroundImageFix"/>
<feColorMatrix in="SourceAlpha" type="matrix" values="0 0 0 0 0 0 0 0 0 0 0 0 0 0 0 0 0 0 127 0" result="hardAlpha"/>
<feOffset dy="2.95971"/>
<feGaussianBlur stdDeviation="1.47985"/>
<feComposite in2="hardAlpha" operator="out"/>
<feColorMatrix type="matrix" values="0 0 0 0 0 0 0 0 0 0 0 0 0 0 0 0 0 0 0.25 0"/>
<feBlend mode="normal" in2="BackgroundImageFix" result="effect1_dropShadow_4_80"/>
<feBlend mode="normal" in="SourceGraphic" in2="effect1_dropShadow_4_80" result="shape"/>
</filter>
</defs>
</svg>
