<svg width="61" height="61" viewBox="0 0 61 61" fill="none" xmlns="http://www.w3.org/2000/svg">
<path d="M30.0118 58.0563C44.9608 58.0563 57.0806 45.9364 57.0806 30.9874C57.0806 16.0384 44.9608 3.9198 30.0118 3.9198C15.0628 3.9198 2.94292 16.0384 2.94292 30.9874C2.94292 45.9364 15.0628 58.0563 30.0118 58.0563Z" stroke="#EEEDED" stroke-width="0.600238"/>
<path d="M34.6268 48.2805V24.9405H21.575V27.49H25.3955V48.2805H21.575V50.8287H38.4473V48.2805H34.6268Z" fill="#E0DDDD"/>
<path d="M30.0105 22.3007C33.1763 22.3007 35.7419 19.7351 35.7419 16.5693C35.7419 13.4036 33.1763 10.8368 30.0105 10.8368C26.8435 10.8368 24.278 13.4036 24.278 16.5693C24.278 19.7351 26.8435 22.3007 30.0105 22.3007Z" fill="#E0DDDD"/>
</svg>
